<svg width="83" height="36" viewBox="0 0 83 36" fill="none" xmlns="http://www.w3.org/2000/svg">
<path d="M4.85 35.75C3.75333 35.75 2.79667 35.3883 1.98 34.665C1.14 33.965 0.72 33.0667 0.72 31.97C0.72 30.9667 0.976667 30.1383 1.49 29.485C2.00333 28.8317 2.66833 28.3067 3.485 27.91C4.30167 27.5367 5.38667 27.14 6.74 26.72L10.975 6.735C11.4417 4.495 12.2583 2.94333 13.425 2.08C14.615 1.21667 15.9217 0.785 17.345 0.785C18.4417 0.785 19.3983 1.14667 20.215 1.87C21.055 2.57 21.475 3.46833 21.475 4.565C21.475 5.10167 21.44 5.58 21.37 6H19.725C19.7717 5.48667 19.795 5.17167 19.795 5.055C19.795 4.68167 19.6667 4.39 19.41 4.18C19.1533 3.97 18.8383 3.865 18.465 3.865C17.975 3.865 17.4967 4.08667 17.03 4.53C16.5633 4.95 16.225 5.685 16.015 6.735L15.42 9.5H17.975L17.73 10.9H15.14L11.115 29.8C10.6483 32.0633 9.84333 33.615 8.7 34.455C7.55667 35.3183 6.27333 35.75 4.85 35.75ZM4.045 32.635C4.97833 32.635 5.64333 31.725 6.04 29.905L6.495 27.875C5.25833 28.295 4.31333 28.7733 3.66 29.31C2.98333 29.87 2.645 30.5933 2.645 31.48C2.645 31.76 2.785 32.0167 3.065 32.25C3.345 32.5067 3.67167 32.635 4.045 32.635ZM22.4411 27.14C20.7144 27.14 19.3494 26.6967 18.3461 25.81C17.3427 24.9233 16.8411 23.5233 16.8411 21.61C16.8411 20.0233 17.1677 18.2617 17.8211 16.325C18.4744 14.3883 19.5244 12.72 20.9711 11.32C22.4177 9.89667 24.2377 9.185 26.4311 9.185C29.4177 9.185 30.9111 11.0517 30.9111 14.785V14.82C30.9811 14.8433 31.1094 14.855 31.2961 14.855C32.0661 14.855 32.9527 14.6567 33.9561 14.26C34.9594 13.84 35.8694 13.3383 36.6861 12.755L37.0011 13.7C36.3244 14.4233 35.4377 15.0417 34.3411 15.555C33.2677 16.045 32.0894 16.395 30.8061 16.605C30.6194 18.7283 30.1411 20.5833 29.3711 22.17C28.6011 23.7567 27.6094 24.9817 26.3961 25.845C25.1827 26.7083 23.8644 27.14 22.4411 27.14ZM23.8411 23.99C24.4011 23.99 24.9611 23.675 25.5211 23.045C26.0811 22.3917 26.5711 21.5167 26.9911 20.42C27.4111 19.3 27.7144 18.0633 27.9011 16.71C27.2711 16.57 26.9561 16.08 26.9561 15.24C26.9561 14.2833 27.3177 13.6533 28.0411 13.35C27.9944 12.58 27.8777 12.055 27.6911 11.775C27.5044 11.4717 27.1777 11.32 26.7111 11.32C25.9411 11.32 25.1944 11.88 24.4711 13C23.7477 14.12 23.1644 15.4617 22.7211 17.025C22.2777 18.5883 22.0561 19.965 22.0561 21.155C22.0561 22.275 22.1844 23.0333 22.4411 23.43C22.6977 23.8033 23.1644 23.99 23.8411 23.99ZM37.8219 27.14C36.0952 27.14 34.7302 26.6967 33.7269 25.81C32.7236 24.9233 32.2219 23.5233 32.2219 21.61C32.2219 20.0233 32.5486 18.2617 33.2019 16.325C33.8552 14.3883 34.9052 12.72 36.3519 11.32C37.7986 9.89667 39.6186 9.185 41.8119 9.185C44.7986 9.185 46.2919 11.0517 46.2919 14.785V14.82C46.3619 14.8433 46.4902 14.855 46.6769 14.855C47.4469 14.855 48.3336 14.6567 49.3369 14.26C50.3402 13.84 51.2502 13.3383 52.0669 12.755L52.3819 13.7C51.7052 14.4233 50.8186 15.0417 49.7219 15.555C48.6486 16.045 47.4702 16.395 46.1869 16.605C46.0002 18.7283 45.5219 20.5833 44.7519 22.17C43.9819 23.7567 42.9902 24.9817 41.7769 25.845C40.5636 26.7083 39.2452 27.14 37.8219 27.14ZM39.2219 23.99C39.7819 23.99 40.3419 23.675 40.9019 23.045C41.4619 22.3917 41.9519 21.5167 42.3719 20.42C42.7919 19.3 43.0952 18.0633 43.2819 16.71C42.6519 16.57 42.3369 16.08 42.3369 15.24C42.3369 14.2833 42.6986 13.6533 43.4219 13.35C43.3752 12.58 43.2586 12.055 43.0719 11.775C42.8852 11.4717 42.5586 11.32 42.0919 11.32C41.3219 11.32 40.5752 11.88 39.8519 13C39.1286 14.12 38.5452 15.4617 38.1019 17.025C37.6586 18.5883 37.4369 19.965 37.4369 21.155C37.4369 22.275 37.5652 23.0333 37.8219 23.43C38.0786 23.8033 38.5452 23.99 39.2219 23.99ZM52.2928 27.21C50.9628 27.21 49.8544 26.755 48.9678 25.845C48.0811 24.935 47.6378 23.5117 47.6378 21.575C47.6378 19.8483 47.9761 18.04 48.6528 16.15C49.3528 14.2367 50.3794 12.6267 51.7328 11.32C53.1094 9.99 54.7428 9.325 56.6328 9.325C57.5894 9.325 58.3011 9.48833 58.7678 9.815C59.2344 10.1417 59.4678 10.5733 59.4678 11.11V11.25L61.1828 3.2L66.3628 2.5L62.3378 21.4C62.2444 21.75 62.1978 22.1233 62.1978 22.52C62.1978 22.9867 62.3028 23.325 62.5128 23.535C62.7461 23.7217 63.1194 23.815 63.6328 23.815C64.2861 23.815 64.8461 23.535 65.3128 22.975C65.8028 22.415 66.1878 21.6683 66.4678 20.735H67.9378C66.5144 24.9117 64.1694 27 60.9028 27C59.9461 27 59.1644 26.7433 58.5578 26.23C57.9744 25.7167 57.6128 24.97 57.4728 23.99C56.8661 24.9233 56.1311 25.6933 55.2678 26.3C54.4278 26.9067 53.4361 27.21 52.2928 27.21ZM54.5678 23.815C55.1278 23.815 55.6878 23.5583 56.2478 23.045C56.8311 22.5317 57.2278 21.82 57.4378 20.91V20.735L59.1528 12.72C58.9428 11.9033 58.4644 11.495 57.7178 11.495C56.7844 11.495 55.9444 12.0433 55.1978 13.14C54.4511 14.2133 53.8678 15.52 53.4478 17.06C53.0278 18.5767 52.8178 19.9183 52.8178 21.085C52.8178 22.2517 52.9811 22.9983 53.3078 23.325C53.6578 23.6517 54.0778 23.815 54.5678 23.815ZM71.9414 35.75C70.8448 35.75 69.8764 35.3883 69.0364 34.665C68.2198 33.965 67.8114 33.0667 67.8114 31.97C67.8114 30.9433 68.0681 30.1033 68.5814 29.45C69.0948 28.7967 69.7598 28.2833 70.5764 27.91C71.3931 27.5367 72.4898 27.14 73.8664 26.72L74.2164 25.18C73.0264 26.5333 71.6031 27.21 69.9464 27.21C68.8264 27.21 67.9164 26.86 67.2164 26.16C66.5398 25.46 66.2014 24.41 66.2014 23.01C66.2014 22.4267 66.2948 21.6683 66.4814 20.735L68.8614 9.5H73.9014L71.3814 21.4C71.3114 21.68 71.2764 21.9717 71.2764 22.275C71.2764 23.3017 71.6264 23.815 72.3264 23.815C72.9798 23.815 73.5398 23.5467 74.0064 23.01C74.4731 22.45 74.8464 21.6917 75.1264 20.735L77.5064 9.5H82.5814L78.3114 29.8C77.8448 32.04 77.0164 33.5917 75.8264 34.455C74.6598 35.3183 73.3648 35.75 71.9414 35.75ZM71.1364 32.635C71.5564 32.635 71.9531 32.4133 72.3264 31.97C72.6998 31.55 72.9914 30.8617 73.2014 29.905L73.6214 27.84C72.3848 28.26 71.4281 28.75 70.7514 29.31C70.0748 29.87 69.7364 30.5933 69.7364 31.48C69.7364 31.76 69.8764 32.0167 70.1564 32.25C70.4364 32.5067 70.7631 32.635 71.1364 32.635Z" fill="#4D4D4D"/>
</svg>
